<svg xmlns="http://www.w3.org/2000/svg" xmlns:xlink="http://www.w3.org/1999/xlink" viewBox="0 0 24 24"><defs><clipPath id="a"><rect width="24" height="24" fill="none"/></clipPath></defs><title>menu-burgerObszar roboczy 1</title><g clip-path="url(#a)"><path d="M.1,18.6a1.32,1.32,0,0,0,1.3,1.3H22.5a1.3,1.3,0,0,0,0-2.6H1.4A1.32,1.32,0,0,0,.1,18.6ZM.1,12a1.32,1.32,0,0,0,1.3,1.3H22.5a1.3,1.3,0,0,0,0-2.6H1.4A1.32,1.32,0,0,0,.1,12ZM1.4,4.1a1.3,1.3,0,0,0,0,2.6H22.5a1.3,1.3,0,1,0,0-2.6Z" fill="#292929"/></g></svg>